HIERARCHY
ROOT Hips
{
	OFFSET 0.000000 0.000000 0.000000
	CHANNELS 6 Xposition Yposition Zposition Zrotation Yrotation Xrotation 
	JOINT LHipJoint
	{
		OFFSET 0.000000 0.000000 0.000000
		CHANNELS 3 Zrotation Yrotation Xrotation
		JOINT LeftUpLeg
		{
			OFFSET 1.363060 -1.794630 0.839290
			CHANNELS 3 Zrotation Yrotation Xrotation
			JOINT LeftLeg
			{
				OFFSET 2.448110 -6.726130 0.000000
				CHANNELS 3 Zrotation Yrotation Xrotation
				JOINT LeftFoot
				{
					OFFSET 2.562200 -7.039590 0.000000
					CHANNELS 3 Zrotation Yrotation Xrotation
					JOINT LeftToeBase
					{
						OFFSET 0.157640 -0.433110 2.322550
						CHANNELS 3 Zrotation Yrotation Xrotation
						End Site
						{
							OFFSET 0.000000 0.000000 0.000000
						}
					}
				}
			}
		}
	}
	JOINT RHipJoint
	{
		OFFSET 0.000000 0.000000 0.000000
		CHANNELS 3 Zrotation Yrotation Xrotation
		JOINT RightUpLeg
		{
			OFFSET -1.305520 -1.794630 0.839290
			CHANNELS 3 Zrotation Yrotation Xrotation
			JOINT RightLeg
			{
				OFFSET -2.542530 -6.985550 0.000000
				CHANNELS 3 Zrotation Yrotation Xrotation
				JOINT RightFoot
				{
					OFFSET -2.568260 -7.056230 0.000000
					CHANNELS 3 Zrotation Yrotation Xrotation
					JOINT RightToeBase
					{
						OFFSET -0.164730 -0.452590 2.363150
						CHANNELS 3 Zrotation Yrotation Xrotation
						End Site
						{
							OFFSET 0.000000 0.000000 0.000000
						}
					}
				}
			}
		}
	}
	JOINT LowerBack
	{
		OFFSET 0.000000 0.000000 0.000000
		CHANNELS 3 Zrotation Yrotation Xrotation
		JOINT Spine
		{
			OFFSET 0.028270 2.035590 -0.193380
			CHANNELS 3 Zrotation Yrotation Xrotation
			JOINT Spine1
			{
				OFFSET 0.056720 2.048850 -0.042750
				CHANNELS 3 Zrotation Yrotation Xrotation
				JOINT Neck
				{
					OFFSET 0.000000 0.000000 0.000000
					CHANNELS 3 Zrotation Yrotation Xrotation
					JOINT Neck1
					{
						OFFSET -0.054170 1.746240 0.172020
						CHANNELS 3 Zrotation Yrotation Xrotation
						JOINT Head
						{
							OFFSET 0.104070 1.761360 -0.123970
							CHANNELS 3 Zrotation Yrotation Xrotation
							End Site
							{
								OFFSET 0.000000 0.000000 0.000000
							}
						}
					}
				}
				JOINT LeftShoulder
				{
					OFFSET 0.000000 0.000000 0.000000
					CHANNELS 3 Zrotation Yrotation Xrotation
					JOINT LeftArm
					{
						OFFSET 3.362410 1.200890 -0.311210
						CHANNELS 3 Zrotation Yrotation Xrotation
						JOINT LeftForeArm
						{
							OFFSET 4.983000 -0.000000 -0.000000
							CHANNELS 3 Zrotation Yrotation Xrotation
							JOINT LeftHand
							{
								OFFSET 3.483560 -0.000000 -0.000000
								CHANNELS 3 Zrotation Yrotation Xrotation
								JOINT LeftFingerBase
								{
									OFFSET 0.000000 0.000000 0.000000
									CHANNELS 3 Zrotation Yrotation Xrotation
									JOINT LeftHandIndex1
									{
										OFFSET 0.715260 -0.000000 -0.000000
										CHANNELS 3 Zrotation Yrotation Xrotation
										End Site
										{
											OFFSET 0.000000 0.000000 0.000000
										}
									}
								}
								JOINT LThumb
								{
									OFFSET 0.000000 0.000000 0.000000
									CHANNELS 3 Zrotation Yrotation Xrotation
									End Site
									{
										OFFSET 0.000000 0.000000 0.000000
									}
								}
							}
						}
					}
				}
				JOINT RightShoulder
				{
					OFFSET 0.000000 0.000000 0.000000
					CHANNELS 3 Zrotation Yrotation Xrotation
					JOINT RightArm
					{
						OFFSET -3.136600 1.374050 -0.404650
						CHANNELS 3 Zrotation Yrotation Xrotation
						JOINT RightForeArm
						{
							OFFSET -5.241900 -0.000000 -0.000000
							CHANNELS 3 Zrotation Yrotation Xrotation
							JOINT RightHand
							{
								OFFSET -3.444170 -0.000000 -0.000000
								CHANNELS 3 Zrotation Yrotation Xrotation
								JOINT RightFingerBase
								{
									OFFSET 0.000000 0.000000 0.000000
									CHANNELS 3 Zrotation Yrotation Xrotation
									JOINT RightHandIndex1
									{
										OFFSET -0.622530 -0.000000 -0.000000
										CHANNELS 3 Zrotation Yrotation Xrotation
										End Site
										{
											OFFSET 0.000000 0.000000 0.000000
										}
									}
								}
								JOINT RThumb
								{
									OFFSET 0.000000 0.000000 0.000000
									CHANNELS 3 Zrotation Yrotation Xrotation
									End Site
									{
										OFFSET 0.000000 0.000000 0.000000
									}
								}
							}
						}
					}
				}
			}
		}
	}
}
MOTION
Frames: 5
Frame Time: 0.008333
0.275480 17.312809 22.673869 3.239759 12.751905 20.068441 -4.587454 -1.578695 1.343152 -13.638700 -0.080728 -4.499388 -0.987518 6.397436 17.700886 3.462259 -13.927506 -3.424183 1.496779 -7.725775 -21.885449 0.955617 3.459095 -5.256857 10.677855 -0.031777 -44.181236 1.814892 -5.290511 11.135159 -1.377181 3.555094 2.530489 -0.386490 3.965721 -10.983629 -1.969559 -3.447970 -7.288029 1.658787 -4.582719 -9.314111 1.249916 -2.144507 -0.852737 -2.484783 -1.544324 -9.147996 2.988752 -2.112822 8.873150 -0.347589 -0.925203 2.737706 13.081618 6.821636 -1.164966 -94.340969 -15.813627 39.350814 31.858139 -48.149763 -14.074344 -0.050301 -0.310404 -11.940548 23.162319 -17.662694 -7.301451 -7.125000 0.000000 0.000000 -3.064003 11.240320 2.411568 -12.921510 -6.553095 1.454773 102.726796 -25.830555 -76.567571 -3.625228 8.896342 0.329303 -0.994610 0.867683 65.097631 -21.210369 -37.748854 12.506493 7.125000 0.000000 0.000000 20.253551 -68.245750 -11.483395
0.265789 17.287114 22.805335 3.230044 12.430108 20.185604 -4.575277 -1.561653 1.362977 -13.613791 -0.231015 -4.308834 -0.962855 6.480250 17.964440 3.381472 -13.610967 -3.062504 1.580137 -7.928326 -22.497746 0.962470 3.439267 -5.254623 10.090974 1.123000 -43.874011 1.801775 -5.438420 11.458702 -1.148856 2.387507 2.663974 -0.495269 4.489964 -12.462688 -1.918928 -3.368775 -7.300425 1.656615 -4.492936 -9.380271 1.259767 -2.088492 -1.043947 -2.399899 -1.494941 -9.063368 2.835391 -2.041218 8.833000 -0.436766 -0.893810 2.701719 13.059690 6.815770 -1.166541 -94.186605 -15.534933 39.261191 32.572204 -48.630546 -14.549369 -0.044211 -0.300998 -11.957781 23.303779 -17.629471 -7.338153 -7.125000 0.000000 0.000000 -2.974009 11.247160 2.340103 -12.884720 -6.532072 1.449376 102.661119 -26.110023 -76.185434 -3.635950 8.972869 0.313816 -0.991316 0.852281 64.511216 -20.913952 -37.559661 12.266679 7.125000 0.000000 0.000000 20.361054 -67.984649 -11.426785
0.256009 17.263486 22.938389 3.206409 12.078221 20.301613 -4.562988 -1.550102 1.376759 -13.596933 -0.374286 -4.161907 -0.934923 6.571272 18.253776 3.305656 -13.374132 -2.597238 1.629998 -8.048473 -22.861507 0.963089 3.420436 -5.251108 9.627148 2.192981 -43.669884 1.777589 -5.628720 11.899037 -0.935984 1.312607 2.863732 -0.641218 5.087414 -14.165760 -1.875559 -3.283066 -7.339035 1.659768 -4.395087 -9.440706 1.297916 -2.026131 -1.197972 -2.362004 -1.460036 -9.041579 2.697961 -1.983141 8.825069 -0.510369 -0.869210 2.697516 13.041133 6.814011 -1.168805 -94.075178 -15.275912 39.155534 33.249367 -49.076783 -15.003833 -0.037635 -0.291968 -11.930514 23.478458 -17.548129 -7.365991 -7.125000 0.000000 0.000000 -2.858554 11.301498 2.246022 -12.852214 -6.513990 1.438614 102.557951 -26.315184 -76.140215 -3.660274 9.029830 0.300499 -0.980647 0.845077 64.302273 -20.646816 -37.370422 12.047990 7.125000 0.000000 0.000000 20.440114 -67.735865 -11.358218
0.246152 17.241612 23.072790 3.170964 11.700802 20.416642 -4.550605 -1.543209 1.385414 -13.586906 -0.511604 -4.051998 -0.904219 6.669259 18.564988 3.234057 -13.204924 -2.044078 1.651438 -8.098703 -23.014390 0.958418 3.402452 -5.246505 9.267732 3.191012 -43.553234 1.744012 -5.854987 12.438469 -0.736223 0.316350 3.119721 -0.818705 5.746980 -16.058904 -1.838352 -3.191828 -7.399888 1.667438 -4.290395 -9.496284 1.360077 -1.958385 -1.320446 -2.363978 -1.437417 -9.073107 2.574049 -1.936540 8.844474 -0.570756 -0.850374 2.720283 13.025434 6.815735 -1.171654 -94.000184 -15.033582 39.036272 33.895218 -49.493708 -15.440852 -0.030647 -0.283259 -11.865489 23.681324 -17.425958 -7.386307 -7.125000 0.000000 0.000000 -2.721495 11.396138 2.132751 -12.823343 -6.498404 1.423300 102.422974 -26.457297 -76.380867 -3.696139 9.070189 0.289023 -0.963719 0.844828 64.413609 -20.404526 -37.181146 11.847226 7.125000 0.000000 0.000000 20.495039 -67.497531 -11.279505
0.240645 17.225088 23.210414 3.067863 11.467366 20.492876 -4.529171 -1.529323 1.393444 -13.481822 -0.710722 -3.880378 -0.868894 6.771299 18.888665 3.167871 -13.003699 -1.567133 1.771000 -8.361546 -23.824008 0.947132 3.374453 -5.232460 9.309333 3.703847 -43.597945 1.704482 -6.101394 13.059406 -0.582332 -0.496076 3.683978 -1.183941 6.787034 -19.134153 -1.660659 -3.119840 -7.506313 1.685619 -4.228450 -9.534487 1.363028 -1.918781 -1.387420 -2.378090 -1.410433 -9.065807 2.455851 -1.885481 8.832722 -0.620122 -0.829874 2.713610 13.016787 6.815736 -1.169242 -93.962661 -14.754453 38.892184 34.521799 -49.892058 -15.869177 -0.025362 -0.275708 -11.754370 23.860573 -17.336791 -7.411763 -7.125000 0.000000 0.000000 -2.601310 11.459763 2.034838 -12.797866 -6.490204 1.411967 102.278089 -26.615084 -76.335719 -3.711104 9.103487 0.278792 -0.956013 0.838105 64.247127 -20.109210 -37.038778 11.624390 7.125000 0.000000 0.000000 20.663327 -67.281448 -11.273663
